<svg width="145" height="190" viewBox="0 0 145 190" fill="none" xmlns="http://www.w3.org/2000/svg">
<path d="M80.522 94.0586H119.917C121.259 94.0586 122.347 95.1456 122.347 96.4876C122.347 97.8286 121.259 98.9166 119.917 98.9166H16.638C15.297 98.9166 14.209 97.8286 14.209 96.4876C14.209 95.1456 15.297 94.0586 16.638 94.0586H56.028L56.026 94.0576C59.916 95.1806 64.026 95.7836 68.277 95.7836C72.526 95.7836 76.634 95.1826 80.522 94.0606" fill="#DB0330"/>
<path d="M119.917 99.3438H16.6383C15.0623 99.3438 13.7812 98.0628 13.7812 96.4878C13.7812 94.9128 15.0633 93.6308 16.6383 93.6308H56.0033C56.0443 93.6278 56.0872 93.6318 56.1292 93.6438C56.1342 93.6438 56.1392 93.6458 56.1442 93.6478C63.9852 95.9118 72.5353 95.9138 80.3613 93.6618C80.4113 93.6418 80.4653 93.6318 80.5213 93.6318H119.916C121.492 93.6318 122.773 94.9138 122.773 96.4888C122.773 98.0638 121.493 99.3438 119.917 99.3438ZM16.6383 94.4858C15.5353 94.4858 14.6382 95.3838 14.6382 96.4868C14.6382 97.5898 15.5353 98.4868 16.6383 98.4868H119.917C121.021 98.4868 121.918 97.5898 121.918 96.4868C121.918 95.3838 121.021 94.4858 119.917 94.4858H80.5902C72.6302 96.7748 63.9402 96.7768 55.9672 94.4858H16.6383Z" fill="#231F20"/>
<path d="M112.204 48.533C112.193 48.533 112.182 48.533 112.17 48.532C111.935 48.513 111.759 48.306 111.776 48.07C111.881 46.758 111.933 45.594 111.933 44.512C111.933 20.441 92.3477 0.856 68.2767 0.856C44.2057 0.856 24.6217 20.441 24.6217 44.512C24.6217 45.609 24.6727 46.771 24.7777 48.07C24.7967 48.306 24.6207 48.513 24.3847 48.532C24.1527 48.537 23.9417 48.375 23.9227 48.138C23.8157 46.818 23.7637 45.631 23.7637 44.512C23.7657 19.969 43.7327 0 68.2767 0C92.8197 0 112.789 19.969 112.789 44.513C112.789 45.618 112.737 46.805 112.631 48.139C112.613 48.363 112.425 48.533 112.204 48.533Z" fill="#231F20"/>
<path d="M68.2766 96.211C43.7326 96.211 23.7646 76.242 23.7646 51.699C23.7646 50.579 23.8166 49.392 23.9236 48.07C24.8206 36.959 29.8316 26.65 38.0326 19.046C46.2796 11.398 57.0206 7.18701 68.2766 7.18701C79.5326 7.18701 90.2737 11.399 98.5217 19.046C106.723 26.65 111.733 36.959 112.631 48.07C112.737 49.406 112.789 50.592 112.789 51.699C112.79 76.242 92.8207 96.211 68.2766 96.211ZM68.2766 8.04301C45.6996 8.04301 26.5936 25.656 24.7776 48.139C24.6726 49.438 24.6216 50.602 24.6216 51.7C24.6216 75.77 44.2046 95.354 68.2766 95.354C92.3476 95.354 111.933 75.77 111.933 51.7C111.933 50.616 111.881 49.452 111.776 48.139C109.96 25.656 90.8536 8.04301 68.2766 8.04301Z" fill="#231F20"/>
<path d="M59.7963 29.8242V58.2642H51.3623L67.6603 79.2712L83.9563 58.2642H75.5223V29.8242H59.7963Z" fill="#DB0330"/>
<path d="M67.6603 79.699C67.5273 79.699 67.4023 79.637 67.3213 79.533L51.0233 58.526C50.9233 58.396 50.9053 58.221 50.9773 58.074C51.0493 57.928 51.1993 57.835 51.3623 57.835H59.3673V29.824C59.3673 29.588 59.5593 29.396 59.7963 29.396H75.5223C75.7583 29.396 75.9503 29.587 75.9503 29.824V57.835H83.9563C84.1203 57.835 84.2693 57.928 84.3413 58.074C84.4133 58.221 84.3963 58.396 84.2953 58.525L67.9993 79.533C67.9173 79.638 67.7923 79.699 67.6603 79.699ZM52.2373 58.691L67.6603 78.571L83.0803 58.691H75.5213C75.2853 58.691 75.0923 58.5 75.0923 58.263V30.253H60.2253V58.264C60.2253 58.5 60.0343 58.692 59.7973 58.692L52.2373 58.691Z" fill="#231F20"/>
<path d="M128.022 190.111H8.533C3.828 190.111 0 186.284 0 181.579V96.4861C0 96.2501 0.191 96.0571 0.428 96.0571C0.665 96.0571 0.856 96.2491 0.856 96.4861V181.579C0.856 185.811 4.3 189.255 8.533 189.255H128.022C132.254 189.255 135.698 185.812 135.698 181.579V161.318C135.698 161.082 135.889 160.89 136.127 160.89C136.365 160.89 136.556 161.081 136.556 161.318V181.579C136.555 186.284 132.727 190.111 128.022 190.111Z" fill="#231F20"/>
<path d="M144.229 125.238C143.993 125.238 143.801 125.047 143.801 124.809C143.801 122.833 142.193 121.226 140.217 121.226H136.126C135.889 121.226 135.697 121.035 135.697 120.798C135.697 120.561 135.888 120.369 136.126 120.369H140.217C142.665 120.369 144.656 122.36 144.656 124.808C144.657 125.047 144.465 125.238 144.229 125.238Z" fill="#231F20"/>
<path d="M140.217 161.747H111.813C102.639 161.747 95.1748 154.284 95.1748 145.11C95.1748 135.936 102.639 128.472 111.813 128.472H140.217C142.193 128.472 143.801 126.866 143.801 124.89V124.809C143.801 124.573 143.992 124.381 144.229 124.381C144.466 124.381 144.657 124.572 144.657 124.809V157.306C144.657 159.755 142.666 161.747 140.217 161.747ZM111.813 129.329C103.112 129.329 96.0318 136.409 96.0318 145.11C96.0318 153.811 103.112 160.89 111.813 160.89H140.217C142.193 160.89 143.801 159.282 143.801 157.306V127.51C142.991 128.613 141.687 129.329 140.217 129.329H111.813Z" fill="#231F20"/>
<path d="M136.126 117.174C135.889 117.174 135.697 116.983 135.697 116.745C135.697 112.514 132.254 109.07 128.021 109.07H12.584C5.645 109.07 0 103.425 0 96.4859C0 89.5469 5.645 83.9019 12.584 83.9019H38.634C38.871 83.9019 39.062 84.0929 39.062 84.3309C39.062 84.5689 38.871 84.7599 38.634 84.7599H12.584C6.117 84.7599 0.855 90.0199 0.855 96.4869C0.855 102.953 6.117 108.214 12.584 108.214H128.022C132.727 108.214 136.555 112.042 136.555 116.746C136.555 116.982 136.364 117.174 136.126 117.174Z" fill="#231F20"/>
<path d="M136.126 129.329C135.889 129.329 135.697 129.138 135.697 128.901V92.4349C135.697 88.2029 132.254 84.7599 128.021 84.7599H97.9202C97.6842 84.7599 97.4922 84.5689 97.4922 84.3309C97.4922 84.0929 97.6832 83.9019 97.9202 83.9019H128.022C132.727 83.9019 136.555 87.7299 136.555 92.4339V128.901C136.555 129.138 136.364 129.329 136.126 129.329Z" fill="#231F20"/>
<path d="M112.28 155.246C106.692 155.246 102.145 150.699 102.145 145.11C102.145 139.522 106.692 134.975 112.28 134.975C117.869 134.975 122.415 139.522 122.415 145.11C122.415 150.699 117.869 155.246 112.28 155.246ZM112.28 135.832C107.165 135.832 103.003 139.994 103.003 145.11C103.003 150.227 107.165 154.389 112.28 154.389C117.396 154.389 121.558 150.227 121.558 145.11C121.558 139.994 117.396 135.832 112.28 135.832Z" fill="#231F20"/>
</svg>